<svg xmlns="http://www.w3.org/2000/svg" viewBox="0 0 654 183">
    <g fill="#2F557F" fill-rule="evenodd">
        <path d="M218.988 136.996v-.896c0-7.441-2.015-11.582-8.673-11.582-5.315 0-7.945 4.533-7.945 11.638 0 7.162 2.63 11.303 8.001 11.303 6.323 0 8.617-3.469 8.617-10.463m-21.71-.951c0-10.296 4.924-15.611 12.365-15.611 4.645 0 7.443 1.958 9.288 4.419h.336c-.11-.951-.336-3.3-.336-4.419v-10.073l4.925-1.902v42.525h-3.972l-.728-4.028h-.225c-1.79 2.573-4.643 4.588-9.343 4.588-7.443 0-12.31-5.204-12.31-15.499M234.653 133.023h15.275c-.056-5.092-2.294-8.562-7.274-8.562-4.7 0-7.498 3.19-8.001 8.562m20.423.951v2.965H234.54c.168 6.771 3.58 10.408 9.568 10.408 2.909 0 5.875-.559 8.226-1.455l1.398 3.693c-3.077 1.343-5.764 1.96-9.848 1.96-8.561 0-14.436-5.317-14.436-15.333 0-9.848 5.315-15.779 13.26-15.779 7.667 0 12.367 5.371 12.367 13.541M260.445 150.984v-40.623l4.924-1.902v42.525zM296.812 151.544c-4.477 0-8.45-.672-10.967-1.902l1.567-4.141c1.734.783 5.372 1.679 9.624 1.679 5.93 0 9.008-2.462 9.008-6.435 0-3.917-2.182-5.596-9.4-8.225-6.826-2.462-10.295-5.652-10.295-11.863 0-6.322 5.203-10.183 12.757-10.183 4.364 0 8.002.895 11.023 2.238l-1.623 4.309c-2.798-1.175-6.043-2.126-9.511-2.126-4.981 0-7.554 2.349-7.554 5.818 0 4.029 2.237 5.65 8.728 8.058 7.05 2.629 10.912 5.259 10.912 11.526 0 7.106-5.54 11.247-14.27 11.247M335.306 108.683c-1.4 2.07-5.372 6.378-8.002 8.393h-3.245v-.67c1.623-2.072 4.028-5.765 5.315-8.283h5.932v.56zm-15.556 24.34h15.276c-.056-5.092-2.294-8.562-7.274-8.562-4.7 0-7.498 3.19-8.002 8.562zm20.424.951v2.965h-20.535c.168 6.77 3.58 10.408 9.567 10.408 2.91 0 5.876-.56 8.226-1.455l1.398 3.693c-3.077 1.343-5.762 1.958-9.847 1.958-8.561 0-14.436-5.315-14.436-15.33 0-9.849 5.316-15.78 13.26-15.78 7.667 0 12.367 5.371 12.367 13.541zM350.467 134.981v.951c0 7.386 2.014 11.527 8.561 11.527 5.427 0 8.001-4.869 8.001-11.582 0-6.827-2.574-11.303-8.114-11.303-6.098 0-8.337 3.413-8.448 10.407m21.654.951c0 10.24-4.925 15.611-12.366 15.611-4.644 0-7.554-2.014-9.288-4.364h-.336c.111 1.287.336 3.526.336 4.924v12.31h-4.924v-43.42h4.028l.671 4.085h.225c1.79-2.575 4.476-4.645 9.344-4.645 7.385 0 12.31 5.148 12.31 15.5M390.135 146.788l1.344 3.524c-1.064.672-3.19 1.232-5.485 1.232-4.699 0-8.784-2.015-8.784-9.288v-26.299l4.924-1.847v6.883h8.673v3.805h-8.673v17.345c0 3.637 1.958 5.373 4.7 5.373 1.119 0 2.63-.392 3.301-.728M397.016 150.984h4.924v-29.991h-4.924v29.991zm5.371-38.104c0 2.126-1.343 3.133-2.854 3.133-1.623 0-2.91-1.007-2.91-3.133 0-2.183 1.287-3.134 2.91-3.134 1.511 0 2.854.951 2.854 3.134zM453.36 131.456v19.528h-4.868v-19.303c0-4.701-1.958-7.107-6.1-7.107-5.818 0-8.112 3.469-8.112 9.848v16.562h-4.868v-19.303c0-4.701-1.96-7.107-6.156-7.107-6.042 0-8 3.861-8 10.855v15.555h-4.924v-29.991h3.972l.727 4.085h.28c1.847-3.134 5.26-4.644 8.84-4.644 4.589 0 7.723 1.623 9.178 5.036h.279c2.015-3.413 5.707-5.036 9.624-5.036 6.77 0 10.128 3.3 10.128 11.022M472.604 147.459c6.043 0 8.785-4.42 8.785-11.526 0-7.107-2.742-11.36-8.841-11.36-6.098 0-8.728 4.253-8.728 11.36 0 7.106 2.685 11.526 8.784 11.526m-.111 4.085c-7.947 0-13.765-5.651-13.765-15.611 0-9.904 5.315-15.5 13.933-15.5 8.113 0 13.82 5.596 13.82 15.5 0 9.96-5.428 15.61-13.988 15.61M518.818 115.342h-6.547v31.334h5.428c10.799 0 16.226-5.371 16.226-15.891 0-10.631-5.483-15.443-15.107-15.443m-.447 35.643h-11.135v-39.952h12.31c12.03 0 19.695 6.77 19.695 19.584 0 13.485-7.722 20.368-20.87 20.368M545.169 150.984h4.924v-29.991h-4.924v29.991zm10.351-42.3c-1.399 2.07-5.371 6.377-8.001 8.392h-3.245v-.671c1.622-2.07 4.028-5.763 5.315-8.281h5.931v.56zM570.178 136.492c-7.497.28-9.903 2.406-9.903 6.211 0 3.357 2.238 4.868 5.483 4.868 5.036 0 8.841-2.742 8.841-8.56v-2.687l-4.421.168zm9.289-5.93v20.422h-3.581l-.951-4.253h-.224c-2.63 3.302-5.036 4.813-10.072 4.813-5.428 0-9.456-2.798-9.456-8.897 0-5.987 4.588-9.289 14.38-9.568l5.092-.168v-1.79c0-4.98-2.294-6.659-6.211-6.659-3.133 0-5.987 1.12-8.45 2.294l-1.51-3.693c2.63-1.399 6.323-2.574 10.24-2.574 7.273 0 10.743 3.078 10.743 10.072z"/>
        <g>
            <path d="M197.558 90.984l1.679-4.477h3.02V55.453h-4.7v-4.42h14.438l-1.68 4.42h-3.021v31.054h4.7v4.477zM233.814 70.561c0-4.365-2.07-6.547-6.154-6.547-4.085 0-6.156 2.238-6.156 6.603 0 4.14 2.07 6.211 6.21 6.211 4.086 0 6.1-2.126 6.1-6.267m3.357 24.004c0-1.623-.447-2.686-1.342-3.245-.952-.56-2.743-.84-5.428-.84h-5.148c-4.196 0-6.266 1.791-6.266 5.428 0 3.133 2.462 4.756 7.386 4.756 7.217 0 10.798-2.014 10.798-6.099m-22.884 1.511c0-3.86 2.18-6.324 6.546-7.386-1.735-.84-2.63-2.294-2.63-4.196 0-2.07 1.23-3.806 3.637-5.26-3.413-1.4-5.204-4.98-5.204-8.449 0-6.995 4.365-10.352 11.192-10.352 1.566 0 2.909.168 4.084.56h10.35l-1.454 3.804h-3.916c1.175 1.567 1.79 3.526 1.79 5.82 0 6.211-4.532 9.624-11.022 9.624-1.008 0-1.791-.056-2.351-.168-1.847 1.007-2.741 2.238-2.741 3.636 0 1.511 1.51 2.295 4.42 2.295h5.092c6.043 0 9.792 2.742 9.792 8.114 0 6.881-5.148 10.295-15.444 10.295-6.994 0-12.141-2.407-12.141-8.337M247.017 90.984V50.361l4.924-1.902v42.525zM263.857 73.023h15.275c-.055-5.092-2.294-8.562-7.273-8.562-4.7 0-7.498 3.19-8.002 8.562m20.424.951v2.965h-20.535c.168 6.771 3.58 10.408 9.567 10.408 2.91 0 5.876-.559 8.226-1.455l1.398 3.693c-3.077 1.343-5.763 1.96-9.848 1.96-8.56 0-14.435-5.317-14.435-15.333 0-9.848 5.315-15.779 13.26-15.779 7.667 0 12.367 5.371 12.367 13.541M298.322 91.544c-4.197 0-7.106-.672-9.4-1.902l1.454-3.805c1.96.839 5.205 1.734 8.058 1.734 4.98 0 7.107-1.734 7.107-4.421 0-2.237-1.511-3.581-7.386-5.818-5.82-2.238-9.29-4.03-9.29-8.953 0-5.092 4.533-7.945 11.248-7.945 3.637 0 6.77.783 9.568 2.014l-1.51 3.973c-2.575-1.12-5.484-1.96-8.394-1.96-4.028 0-6.211 1.4-6.211 3.639 0 2.517 1.959 3.524 7.722 5.707 5.708 2.126 9.009 4.085 9.009 8.896 0 5.82-4.645 8.84-11.974 8.84M316.281 90.984h4.924V60.993h-4.924v29.991zm5.372-38.104c0 2.126-1.343 3.133-2.854 3.133-1.623 0-2.91-1.007-2.91-3.133 0-2.183 1.287-3.134 2.91-3.134 1.511 0 2.854.951 2.854 3.134zM342.41 76.492c-7.498.28-9.904 2.406-9.904 6.211 0 3.357 2.238 4.868 5.483 4.868 5.036 0 8.841-2.742 8.841-8.56v-2.687l-4.42.168zm9.288-5.93v20.422h-3.58l-.952-4.253h-.224c-2.63 3.302-5.036 4.813-10.072 4.813-5.428 0-9.456-2.798-9.456-8.897 0-5.987 4.588-9.289 14.38-9.568l5.092-.168v-1.79c0-4.98-2.294-6.659-6.21-6.659-3.134 0-5.988 1.12-8.45 2.294l-1.51-3.693c2.63-1.399 6.322-2.574 10.24-2.574 7.272 0 10.742 3.078 10.742 10.072zM388.232 62.057c-.336-.896-1.511-4.59-1.902-5.987-.56 2.294-1.287 4.7-1.736 5.987l-4.532 12.086h12.647l-4.477-12.086zm5.987 16.562h-15.835l-4.756 12.366h-5.092l15.61-40.12h4.533l15.556 40.12h-5.204l-4.812-12.366zM426.893 76.996V76.1c0-7.441-2.015-11.582-8.673-11.582-5.315 0-7.945 4.533-7.945 11.638 0 7.162 2.63 11.303 8 11.303 6.324 0 8.618-3.469 8.618-10.463m-21.71-.951c0-10.296 4.924-15.611 12.365-15.611 4.645 0 7.443 1.958 9.288 4.419h.336c-.111-.951-.336-3.3-.336-4.419V50.361l4.925-1.902v42.525h-3.972l-.728-4.028h-.225c-1.79 2.573-4.643 4.588-9.343 4.588-7.443 0-12.31-5.204-12.31-15.499M435.842 60.993h5.26l6.379 17.682c.895 2.462 2.07 6.098 2.406 7.945h.224c.391-1.847 1.678-5.54 2.517-7.945l6.379-17.682h5.26l-11.414 29.991h-5.652l-11.359-29.99zM471.259 73.023h15.275c-.056-5.092-2.294-8.562-7.274-8.562-4.7 0-7.498 3.19-8.001 8.562m20.423.951v2.965h-20.535c.168 6.771 3.581 10.408 9.568 10.408 2.909 0 5.875-.559 8.226-1.455l1.398 3.693c-3.077 1.343-5.764 1.96-9.848 1.96-8.561 0-14.436-5.317-14.436-15.333 0-9.848 5.315-15.779 13.261-15.779 7.666 0 12.366 5.371 12.366 13.541M522.286 71.456v19.528h-4.868V71.792c0-4.812-2.126-7.218-6.714-7.218-6.659 0-8.785 3.861-8.785 10.855v15.555h-4.924V60.993h3.973l.727 4.085h.28c1.958-3.134 5.651-4.644 9.457-4.644 7.162 0 10.854 3.3 10.854 11.022M542.315 86.788l1.344 3.524c-1.064.672-3.19 1.232-5.485 1.232-4.7 0-8.784-2.015-8.784-9.288V55.957l4.924-1.847v6.883h8.673v3.805h-8.673v17.345c0 3.637 1.958 5.373 4.7 5.373 1.119 0 2.63-.392 3.3-.728M549.195 90.984h4.924V60.993h-4.924v29.991zm5.372-38.104c0 2.126-1.343 3.133-2.854 3.133-1.623 0-2.91-1.007-2.91-3.133 0-2.183 1.287-3.134 2.91-3.134 1.511 0 2.854.951 2.854 3.134zM570.065 91.544c-4.197 0-7.106-.672-9.4-1.902l1.454-3.805c1.959.839 5.204 1.734 8.057 1.734 4.98 0 7.107-1.734 7.107-4.421 0-2.237-1.511-3.581-7.386-5.818-5.82-2.238-9.29-4.03-9.29-8.953 0-5.092 4.533-7.945 11.248-7.945 3.637 0 6.77.783 9.568 2.014l-1.51 3.973c-2.575-1.12-5.484-1.96-8.394-1.96-4.028 0-6.211 1.4-6.211 3.639 0 2.517 1.959 3.524 7.722 5.707 5.708 2.126 9.009 4.085 9.009 8.896 0 5.82-4.645 8.84-11.974 8.84M601.004 86.788l1.344 3.524c-1.064.672-3.19 1.232-5.485 1.232-4.699 0-8.784-2.015-8.784-9.288V55.957l4.924-1.847v6.883h8.673v3.805h-8.673v17.345c0 3.637 1.958 5.373 4.7 5.373 1.12 0 2.63-.392 3.301-.728M619.58 76.492c-7.499.28-9.905 2.406-9.905 6.211 0 3.357 2.238 4.868 5.484 4.868 5.035 0 8.84-2.742 8.84-8.56v-2.687l-4.42.168zm9.287-5.93v20.422h-3.58l-.952-4.253h-.224c-2.63 3.302-5.036 4.813-10.07 4.813-5.429 0-9.458-2.798-9.458-8.897 0-5.987 4.59-9.289 14.381-9.568l5.092-.168v-1.79c0-4.98-2.294-6.659-6.21-6.659-3.135 0-5.989 1.12-8.45 2.294l-1.51-3.693c2.63-1.399 6.321-2.574 10.238-2.574 7.274 0 10.743 3.078 10.743 10.072zM633.621 52.6c.503 0 .84-.28.84-.729 0-.447-.28-.67-.84-.67h-.504V52.6h.504zm-1.287-2.07h1.287c1.12 0 1.622.447 1.622 1.341 0 .617-.392.953-.783 1.12l1.175 1.96h-.895l-1.008-1.736h-.615v1.735h-.783v-4.42zm4.532 2.237c0-1.734-1.287-3.189-3.134-3.189-1.845 0-3.132 1.342-3.132 3.19 0 1.733 1.287 3.133 3.132 3.133 1.736 0 3.134-1.287 3.134-3.134zm-6.826 0c0-2.182 1.511-3.749 3.692-3.749 2.071 0 3.694 1.567 3.694 3.75 0 2.126-1.567 3.692-3.694 3.692-2.18 0-3.692-1.566-3.692-3.693z"/>
        </g>
        <g>
            <path d="M93.989 142.298c0 .542.62.543.732 0 .824-3.997 2.076-6.662 4.033-9.25l-4.401.004a.364.364 0 0 0-.364.364v8.882zm32.32-55.485c-.181-.584-.687-.623-.682-.011.05 5.779-1.612 10.746-12.16 21.294l-8.344 8.337c-3.797 3.797-7.211 7.264-9.229 10.729h8.24c.315-.317.639-.64.974-.975l11.97-11.982c9.969-9.97 11.359-20.514 9.231-27.392zm-11.187 35.25l-9.999 10.007c-6.052 6.052-11.134 11.267-11.134 16.97l.006 1.588c0 .43.536.5.701.048 1.869-5.106 8.112-10.556 19.564-8.624 0 0 49.891 8.62 50.31 8.658.487.043.728-.436.414-.81-.189-.225-23.221-23.255-23.221-23.255l-26.641-4.582zm-36.093 10.986a.364.364 0 0 1-.364-.364v-5.162c0-.201.163-.364.364-.364l8.732.002a.363.363 0 0 0 .364-.363c-.023-4.638-3.518-7.788-17.523-5.351l-30.24 5.198S17.33 149.675 17.141 149.9c-.314.374-.073.853.414.81.42-.037 50.31-8.658 50.31-8.658 11.452-1.932 17.696 3.518 19.564 8.624.165.452.702.383.702-.048l.001-17.215a.364.364 0 0 0-.364-.364h-8.739zM65.09 60.897c-9.969 9.969-11.359 20.514-9.23 27.393.18.584.686.623.681.01-.05-5.78 1.613-10.745 12.161-21.294l22.74-22.733c6.052-6.053 11.134-11.267 11.134-16.971v-8.895c0-.541-.62-.543-.732 0-1.496 7.259-4.399 10.124-10.387 16.11L65.09 60.898zm37.508-17.973v-8.955c0-.542-.62-.544-.732 0-1.496 7.259-4.392 10.168-10.38 16.156L67.603 73.988c-11.591 11.59-13.596 22.808-7.701 30.016.393.48.816.193.559-.387-3.897-8.818 5.449-18.168 9.899-22.618l21.104-21.104c6.052-6.053 11.134-11.267 11.134-16.971zm-34.34 46.045c-11.591 11.59-6.261 22.786.5 25.868.593.27.829-.211.375-.604-5.422-4.697-3.775-12.598 3.043-19.415l19.263-19.265c6.053-6.052 11.134-11.267 11.134-16.97v-8.895c0-.541-.62-.543-.731 0-1.497 7.259-4.394 10.11-10.381 16.099L68.258 88.969zm25.71 28.812v8.955c0 .542.62.544.731 0 1.496-7.258 4.393-10.168 10.38-16.156l9.487-9.466c11.59-11.59 13.595-22.807 7.7-30.016-.393-.48-.816-.193-.559.387 3.897 8.818-5.448 18.168-9.898 22.618l-6.708 6.708c-6.052 6.052-11.133 11.267-11.133 16.97zm11.137-22.862c-5.988 5.987-8.886 8.839-10.381 16.099-.112.543-.732.54-.732 0v-8.896c0-5.703 5.081-10.918 11.134-16.97l4.867-4.868c6.818-6.818 8.464-14.717 3.042-19.414-.453-.393-.217-.875.376-.604 6.761 3.08 12.09 14.276.499 25.867l-8.805 8.786zM161.307 133.712c.525 0 .839-.293.839-.718 0-.474-.263-.677-.85-.677h-.494v1.395h.505zm-1.272-2.04h1.293c1.1 0 1.595.434 1.595 1.303 0 .635-.384.99-.788 1.151l1.172 1.96h-.868l-1.011-1.748h-.626v1.748h-.767v-4.415zm4.515 2.201c0-1.747-1.304-3.172-3.132-3.172s-3.141 1.324-3.141 3.172c0 1.748 1.313 3.172 3.14 3.172 1.729 0 3.133-1.323 3.133-3.172zm-6.84 0c0-2.15 1.557-3.707 3.708-3.707 2.05 0 3.707 1.556 3.707 3.707 0 2.152-1.555 3.707-3.707 3.707-2.151 0-3.707-1.555-3.707-3.707z"/>
        </g>
    </g>
</svg>
