<svg xmlns="http://www.w3.org/2000/svg" viewBox="0 0 481 310">
    <g fill="#2F557F" fill-rule="evenodd">
        <path d="M67.579 260.955v-.896c0-7.441-2.014-11.582-8.673-11.582-5.315 0-7.945 4.533-7.945 11.638 0 7.162 2.63 11.303 8 11.303 6.324 0 8.618-3.469 8.618-10.463m-21.71-.951c0-10.296 4.924-15.611 12.366-15.611 4.644 0 7.442 1.958 9.288 4.419h.336c-.112-.951-.336-3.3-.336-4.419V234.32l4.924-1.902v42.525h-3.972l-.728-4.028h-.224c-1.791 2.573-4.644 4.588-9.344 4.588-7.442 0-12.31-5.204-12.31-15.499M83.243 256.982h15.275c-.056-5.092-2.294-8.562-7.274-8.562-4.7 0-7.498 3.19-8.001 8.562m20.423.951v2.965H83.13c.168 6.771 3.58 10.408 9.568 10.408 2.91 0 5.876-.559 8.226-1.455l1.398 3.693c-3.077 1.343-5.763 1.96-9.848 1.96-8.561 0-14.436-5.317-14.436-15.333 0-9.848 5.316-15.779 13.26-15.779 7.667 0 12.367 5.371 12.367 13.541M109.036 274.943V234.32l4.924-1.902v42.525zM145.402 275.503c-4.477 0-8.449-.672-10.967-1.902l1.567-4.141c1.734.783 5.371 1.679 9.624 1.679 5.931 0 9.008-2.462 9.008-6.435 0-3.917-2.182-5.596-9.4-8.225-6.827-2.462-10.295-5.652-10.295-11.863 0-6.322 5.203-10.183 12.757-10.183 4.364 0 8.001.895 11.023 2.238l-1.623 4.309c-2.798-1.175-6.043-2.126-9.512-2.126-4.98 0-7.554 2.349-7.554 5.818 0 4.029 2.238 5.65 8.73 8.058 7.05 2.629 10.91 5.259 10.91 11.526 0 7.106-5.539 11.247-14.268 11.247M183.896 232.643c-1.399 2.07-5.372 6.378-8.001 8.393h-3.246v-.671c1.623-2.071 4.029-5.764 5.316-8.282h5.931v.56zm-15.555 24.34h15.275c-.056-5.092-2.294-8.562-7.274-8.562-4.7 0-7.498 3.19-8.001 8.562zm20.423.95v2.966h-20.535c.168 6.77 3.581 10.408 9.568 10.408 2.91 0 5.875-.56 8.225-1.455l1.399 3.693c-3.077 1.343-5.763 1.958-9.848 1.958-8.561 0-14.436-5.315-14.436-15.331 0-9.848 5.316-15.78 13.261-15.78 7.666 0 12.366 5.372 12.366 13.542zM199.057 258.94v.951c0 7.386 2.014 11.527 8.561 11.527 5.427 0 8.001-4.869 8.001-11.582 0-6.827-2.574-11.303-8.113-11.303-6.099 0-8.337 3.413-8.449 10.407m21.654.951c0 10.24-4.924 15.611-12.366 15.611-4.644 0-7.554-2.014-9.288-4.364h-.336c.112 1.287.336 3.526.336 4.924v12.31h-4.924v-43.42h4.028l.672 4.085h.224c1.791-2.575 4.476-4.645 9.344-4.645 7.386 0 12.31 5.148 12.31 15.5M238.726 270.747l1.343 3.524c-1.063.672-3.19 1.232-5.484 1.232-4.7 0-8.784-2.015-8.784-9.288v-26.299l4.924-1.847v6.883h8.673v3.805h-8.673v17.345c0 3.637 1.958 5.373 4.7 5.373 1.119 0 2.63-.392 3.3-.728M245.606 274.943h4.924v-29.991h-4.924v29.991zm5.372-38.104c0 2.126-1.344 3.133-2.854 3.133-1.623 0-2.91-1.007-2.91-3.133 0-2.183 1.287-3.134 2.91-3.134 1.51 0 2.854.951 2.854 3.134zM301.95 255.415v19.528h-4.868V255.64c0-4.701-1.958-7.107-6.1-7.107-5.818 0-8.112 3.469-8.112 9.848v16.562h-4.868V255.64c0-4.701-1.96-7.107-6.155-7.107-6.043 0-8.001 3.861-8.001 10.855v15.555h-4.924v-29.991h3.972l.727 4.085h.28c1.847-3.134 5.26-4.644 8.84-4.644 4.589 0 7.723 1.623 9.178 5.036h.28c2.014-3.413 5.707-5.036 9.624-5.036 6.77 0 10.127 3.3 10.127 11.022M321.194 271.418c6.043 0 8.785-4.42 8.785-11.526 0-7.107-2.742-11.36-8.84-11.36-6.1 0-8.73 4.253-8.73 11.36 0 7.106 2.686 11.526 8.785 11.526m-.112 4.085c-7.946 0-13.764-5.651-13.764-15.611 0-9.904 5.315-15.5 13.932-15.5 8.113 0 13.82 5.596 13.82 15.5 0 9.96-5.427 15.61-13.988 15.61M367.408 239.3h-6.547v31.335h5.428c10.8 0 16.226-5.371 16.226-15.891 0-10.631-5.483-15.443-15.107-15.443m-.448 35.643h-11.135v-39.952h12.31c12.03 0 19.696 6.77 19.696 19.584 0 13.485-7.722 20.368-20.87 20.368M393.759 274.943h4.924v-29.991h-4.924v29.991zm10.351-42.3c-1.398 2.07-5.372 6.377-8.002 8.392h-3.245v-.671c1.623-2.07 4.03-5.763 5.316-8.281h5.931v.56zM418.769 260.451c-7.498.28-9.904 2.406-9.904 6.211 0 3.357 2.238 4.868 5.484 4.868 5.035 0 8.84-2.742 8.84-8.56v-2.687l-4.42.168zm9.288-5.93v20.422h-3.581l-.951-4.253h-.224c-2.63 3.302-5.036 4.813-10.071 4.813-5.428 0-9.457-2.798-9.457-8.897 0-5.987 4.589-9.289 14.38-9.568l5.093-.168v-1.79c0-4.98-2.294-6.659-6.211-6.659-3.134 0-5.988 1.12-8.45 2.294l-1.51-3.693c2.63-1.399 6.323-2.574 10.239-2.574 7.274 0 10.743 3.078 10.743 10.072z"/>
        <g>
            <path d="M21 214.943l1.679-4.477H25.7v-31.054H21v-4.42h14.436l-1.679 4.42h-3.021v31.054h4.7v4.477zM57.256 194.52c0-4.365-2.07-6.547-6.155-6.547-4.084 0-6.155 2.238-6.155 6.603 0 4.14 2.07 6.211 6.21 6.211 4.086 0 6.1-2.126 6.1-6.267m3.357 24.004c0-1.623-.447-2.686-1.342-3.245-.952-.56-2.743-.84-5.428-.84h-5.148c-4.196 0-6.267 1.791-6.267 5.428 0 3.133 2.462 4.756 7.386 4.756 7.218 0 10.799-2.014 10.799-6.099m-22.885 1.511c0-3.86 2.182-6.324 6.547-7.386-1.735-.84-2.63-2.294-2.63-4.196 0-2.07 1.23-3.806 3.637-5.26-3.413-1.4-5.204-4.98-5.204-8.449 0-6.995 4.365-10.352 11.19-10.352 1.568 0 2.91.168 4.086.56h10.35l-1.454 3.804h-3.916c1.174 1.567 1.79 3.526 1.79 5.82 0 6.211-4.532 9.624-11.023 9.624-1.007 0-1.79-.056-2.35-.168-1.847 1.007-2.742 2.238-2.742 3.636 0 1.511 1.51 2.295 4.42 2.295h5.093c6.043 0 9.792 2.742 9.792 8.114 0 6.881-5.148 10.295-15.444 10.295-6.994 0-12.142-2.407-12.142-8.337M70.459 214.943V174.32l4.923-1.902v42.525zM87.299 196.982h15.275c-.056-5.092-2.294-8.562-7.274-8.562-4.7 0-7.498 3.19-8.001 8.562m20.423.951v2.965H87.187c.168 6.771 3.58 10.408 9.568 10.408 2.91 0 5.876-.559 8.226-1.455l1.398 3.693c-3.077 1.343-5.763 1.96-9.848 1.96-8.561 0-14.436-5.317-14.436-15.333 0-9.848 5.316-15.779 13.26-15.779 7.667 0 12.367 5.371 12.367 13.541M121.764 215.503c-4.197 0-7.106-.672-9.4-1.902l1.454-3.805c1.96.839 5.204 1.734 8.058 1.734 4.98 0 7.106-1.734 7.106-4.421 0-2.237-1.51-3.581-7.386-5.818-5.819-2.238-9.289-4.03-9.289-8.953 0-5.092 4.533-7.945 11.248-7.945 3.636 0 6.77.783 9.567 2.014l-1.51 3.973c-2.574-1.12-5.484-1.96-8.393-1.96-4.029 0-6.21 1.4-6.21 3.639 0 2.517 1.957 3.524 7.72 5.707 5.708 2.126 9.01 4.085 9.01 8.896 0 5.82-4.645 8.84-11.975 8.84M139.723 214.943h4.924v-29.991h-4.924v29.991zm5.372-38.104c0 2.126-1.344 3.133-2.854 3.133-1.623 0-2.91-1.007-2.91-3.133 0-2.183 1.287-3.134 2.91-3.134 1.51 0 2.854.951 2.854 3.134zM165.852 200.451c-7.498.28-9.904 2.406-9.904 6.211 0 3.357 2.238 4.868 5.484 4.868 5.036 0 8.84-2.742 8.84-8.56v-2.687l-4.42.168zm9.289-5.93v20.422h-3.581l-.952-4.253h-.223c-2.63 3.302-5.036 4.813-10.072 4.813-5.428 0-9.457-2.798-9.457-8.897 0-5.987 4.589-9.289 14.38-9.568l5.093-.168v-1.79c0-4.98-2.294-6.659-6.211-6.659-3.134 0-5.987 1.12-8.45 2.294l-1.51-3.693c2.63-1.399 6.323-2.574 10.239-2.574 7.274 0 10.744 3.078 10.744 10.072zM211.673 186.016c-.335-.896-1.51-4.59-1.902-5.987-.56 2.294-1.287 4.7-1.735 5.987l-4.532 12.086h12.646l-4.477-12.086zm5.987 16.562h-15.835l-4.756 12.366h-5.092l15.612-40.12h4.532l15.555 40.12h-5.204l-4.812-12.366zM250.334 200.955v-.896c0-7.441-2.013-11.582-8.673-11.582-5.315 0-7.945 4.533-7.945 11.638 0 7.162 2.63 11.303 8.001 11.303 6.323 0 8.617-3.469 8.617-10.463m-21.71-.951c0-10.296 4.924-15.611 12.367-15.611 4.643 0 7.441 1.958 9.287 4.419h.337c-.113-.951-.337-3.3-.337-4.419V174.32l4.924-1.902v42.525h-3.971l-.728-4.028h-.224c-1.791 2.573-4.644 4.588-9.344 4.588-7.442 0-12.31-5.204-12.31-15.499M259.284 184.952h5.26l6.38 17.682c.894 2.462 2.07 6.098 2.404 7.945h.224c.392-1.847 1.68-5.54 2.518-7.945l6.38-17.682h5.26l-11.416 29.991h-5.65l-11.36-29.99zM294.7 196.982h15.276c-.056-5.092-2.294-8.562-7.274-8.562-4.7 0-7.498 3.19-8.001 8.562m20.423.951v2.965h-20.535c.168 6.771 3.58 10.408 9.568 10.408 2.91 0 5.876-.559 8.226-1.455l1.398 3.693c-3.077 1.343-5.763 1.96-9.848 1.96-8.561 0-14.436-5.317-14.436-15.333 0-9.848 5.316-15.779 13.26-15.779 7.667 0 12.367 5.371 12.367 13.541M345.728 195.415v19.528h-4.868v-19.192c0-4.812-2.125-7.218-6.714-7.218-6.659 0-8.785 3.861-8.785 10.855v15.555h-4.923v-29.991h3.973l.726 4.085h.28c1.959-3.134 5.651-4.644 9.457-4.644 7.161 0 10.854 3.3 10.854 11.022M365.757 210.747l1.343 3.524c-1.064.672-3.19 1.232-5.484 1.232-4.7 0-8.785-2.015-8.785-9.288v-26.299l4.925-1.847v6.883h8.673v3.805h-8.673v17.345c0 3.637 1.958 5.373 4.699 5.373 1.119 0 2.63-.392 3.302-.728M372.637 214.943h4.924v-29.991h-4.924v29.991zm5.372-38.104c0 2.126-1.344 3.133-2.855 3.133-1.622 0-2.909-1.007-2.909-3.133 0-2.183 1.287-3.134 2.909-3.134 1.511 0 2.855.951 2.855 3.134zM393.506 215.503c-4.196 0-7.106-.672-9.4-1.902l1.455-3.805c1.958.839 5.204 1.734 8.057 1.734 4.98 0 7.106-1.734 7.106-4.421 0-2.237-1.511-3.581-7.386-5.818-5.82-2.238-9.288-4.03-9.288-8.953 0-5.092 4.532-7.945 11.247-7.945 3.637 0 6.77.783 9.567 2.014l-1.51 3.973c-2.574-1.12-5.484-1.96-8.393-1.96-4.03 0-6.211 1.4-6.211 3.639 0 2.517 1.958 3.524 7.722 5.707 5.707 2.126 9.009 4.085 9.009 8.896 0 5.82-4.645 8.84-11.975 8.84M424.446 210.747l1.343 3.524c-1.064.672-3.19 1.232-5.484 1.232-4.7 0-8.785-2.015-8.785-9.288v-26.299l4.925-1.847v6.883h8.673v3.805h-8.673v17.345c0 3.637 1.958 5.373 4.7 5.373 1.118 0 2.63-.392 3.301-.728M443.022 200.451c-7.498.28-9.904 2.406-9.904 6.211 0 3.357 2.238 4.868 5.483 4.868 5.036 0 8.84-2.742 8.84-8.56v-2.687l-4.42.168zm9.288-5.93v20.422h-3.582l-.95-4.253h-.225c-2.63 3.302-5.036 4.813-10.072 4.813-5.428 0-9.455-2.798-9.455-8.897 0-5.987 4.587-9.289 14.38-9.568l5.091-.168v-1.79c0-4.98-2.293-6.659-6.21-6.659-3.133 0-5.987 1.12-8.45 2.294l-1.51-3.693c2.63-1.399 6.322-2.574 10.24-2.574 7.272 0 10.743 3.078 10.743 10.072zM457.063 176.559c.504 0 .84-.28.84-.728 0-.447-.28-.67-.84-.67h-.503v1.398h.502zm-1.287-2.07h1.286c1.12 0 1.623.448 1.623 1.342 0 .617-.392.953-.783 1.12l1.175 1.959h-.895l-1.007-1.735h-.615v1.735h-.784v-4.421zm4.531 2.238c0-1.734-1.286-3.19-3.132-3.19s-3.134 1.343-3.134 3.19c0 1.734 1.288 3.134 3.134 3.134 1.734 0 3.132-1.287 3.132-3.134zm-6.826 0c0-2.182 1.512-3.75 3.694-3.75 2.07 0 3.692 1.568 3.692 3.75 0 2.127-1.567 3.693-3.692 3.693-2.183 0-3.694-1.566-3.694-3.693z"/>
        </g>
        <g>
            <path d="M309.213 137.712c.525 0 .839-.293.839-.718 0-.474-.263-.677-.85-.677h-.494v1.395h.505zm-1.272-2.041h1.293c1.1 0 1.595.435 1.595 1.304 0 .635-.384.989-.788 1.15l1.172 1.96h-.868l-1.011-1.747h-.626v1.748h-.767v-4.415zm4.515 2.202c0-1.747-1.304-3.172-3.132-3.172s-3.141 1.324-3.141 3.172c0 1.748 1.313 3.172 3.14 3.172 1.729 0 3.133-1.323 3.133-3.172zm-6.84 0c0-2.151 1.557-3.707 3.708-3.707 2.05 0 3.707 1.556 3.707 3.707 0 2.152-1.555 3.707-3.707 3.707-2.151 0-3.707-1.555-3.707-3.707zM241.895 146.298c0 .54.62.543.732 0 .824-3.997 2.076-6.662 4.033-9.25l-4.401.004a.363.363 0 0 0-.364.363v8.883zm32.32-55.485c-.181-.584-.687-.623-.682-.011.05 5.779-1.612 10.745-12.16 21.294l-8.344 8.337c-3.797 3.797-7.211 7.263-9.229 10.729h8.24l.974-.975 11.97-11.983c9.969-9.97 11.359-20.513 9.231-27.391zm-11.187 35.25l-9.999 10.006c-6.052 6.053-11.134 11.268-11.134 16.97l.006 1.589c0 .43.536.499.701.048 1.869-5.106 8.112-10.556 19.564-8.624 0 0 49.891 8.62 50.31 8.658.487.043.728-.437.414-.81-.189-.225-23.22-23.255-23.22-23.255l-26.642-4.582zm-36.093 10.986a.364.364 0 0 1-.364-.364v-5.162c0-.202.163-.364.364-.364l8.732.002a.364.364 0 0 0 .364-.364c-.023-4.637-3.518-7.787-17.523-5.35l-30.24 5.198s-23.032 23.03-23.221 23.255c-.314.373-.073.853.414.81.42-.037 50.31-8.658 50.31-8.658 11.453-1.932 17.696 3.518 19.564 8.624.165.45.702.383.702-.048l.001-17.216c0-.2-.163-.363-.364-.363h-8.739zm-13.939-72.152c-9.969 9.968-11.359 20.514-9.23 27.392.18.584.686.623.681.01-.05-5.778 1.613-10.744 12.161-21.293l22.74-22.733c6.052-6.053 11.134-11.268 11.134-16.971v-8.896c0-.541-.62-.543-.732 0-1.496 7.26-4.399 10.124-10.387 16.112l-26.367 26.379zm37.508-17.973v-8.956c0-.541-.62-.543-.732 0-1.496 7.26-4.392 10.169-10.38 16.157l-23.883 23.862c-11.59 11.59-13.596 22.808-7.701 30.016.393.482.816.193.56-.387-3.898-8.818 5.448-18.168 9.898-22.617l21.104-21.104c6.052-6.053 11.134-11.268 11.134-16.971zm-34.34 46.045c-11.591 11.59-6.261 22.785.5 25.867.593.27.829-.211.375-.603-5.421-4.698-3.775-12.598 3.043-19.415l19.264-19.265c6.052-6.052 11.133-11.267 11.133-16.97v-8.895c0-.541-.62-.543-.731 0-1.496 7.258-4.394 10.11-10.381 16.098l-23.203 23.183zm25.71 28.81v8.957c0 .54.62.543.731 0 1.497-7.258 4.393-10.168 10.38-16.156l9.487-9.467c11.59-11.59 13.595-22.806 7.7-30.015-.393-.481-.816-.193-.559.387 3.897 8.818-5.448 18.167-9.898 22.618l-6.707 6.708c-6.053 6.05-11.134 11.266-11.134 16.969zm11.137-22.861c-5.988 5.987-8.886 8.84-10.381 16.099-.112.544-.732.542-.732 0v-8.895c0-5.703 5.081-10.918 11.134-16.97l4.867-4.868c6.818-6.818 8.464-14.717 3.042-19.415-.453-.392-.217-.874.376-.603 6.761 3.08 12.091 14.275.499 25.867l-8.805 8.785z"/>
        </g>
    </g>
</svg>
