<svg xmlns="http://www.w3.org/2000/svg" viewBox="0 0 481 152">
    <g fill="#2F557F" fill-rule="evenodd">
        <path d="M41.71 106.537v-.896c0-7.441-2.015-11.582-8.673-11.582-5.315 0-7.945 4.533-7.945 11.638 0 7.162 2.63 11.303 8.001 11.303 6.323 0 8.617-3.469 8.617-10.463M20 105.586c0-10.296 4.924-15.611 12.365-15.611 4.645 0 7.443 1.958 9.288 4.419h.336c-.111-.951-.336-3.3-.336-4.419V79.902L46.578 78v42.525h-3.972l-.728-4.028h-.225c-1.79 2.573-4.643 4.588-9.343 4.588-7.443 0-12.31-5.204-12.31-15.499M57.374 102.564h15.275c-.056-5.092-2.294-8.562-7.274-8.562-4.7 0-7.498 3.19-8.001 8.562m20.423.951v2.965H57.262c.168 6.771 3.581 10.408 9.568 10.408 2.909 0 5.875-.559 8.226-1.455l1.398 3.693c-3.077 1.343-5.764 1.96-9.848 1.96-8.561 0-14.436-5.317-14.436-15.333 0-9.848 5.315-15.779 13.261-15.779 7.666 0 12.366 5.371 12.366 13.541M83.167 120.525V79.902L88.091 78v42.525zM119.533 121.085c-4.477 0-8.449-.672-10.967-1.902l1.567-4.141c1.734.783 5.372 1.679 9.624 1.679 5.931 0 9.008-2.462 9.008-6.435 0-3.917-2.182-5.596-9.4-8.225-6.826-2.462-10.295-5.652-10.295-11.863 0-6.322 5.203-10.183 12.757-10.183 4.364 0 8.002.895 11.023 2.238l-1.623 4.309c-2.798-1.175-6.043-2.126-9.51-2.126-4.982 0-7.555 2.349-7.555 5.818 0 4.029 2.237 5.65 8.728 8.058 7.05 2.629 10.912 5.259 10.912 11.526 0 7.106-5.54 11.247-14.269 11.247M158.027 78.225c-1.399 2.07-5.372 6.378-8.002 8.393h-3.245v-.671c1.623-2.072 4.028-5.765 5.315-8.283h5.932v.56zm-15.556 24.34h15.276c-.056-5.092-2.294-8.562-7.274-8.562-4.7 0-7.498 3.19-8.002 8.562zm20.424.95v2.966H142.36c.168 6.77 3.581 10.408 9.567 10.408 2.911 0 5.876-.56 8.226-1.455l1.398 3.693c-3.077 1.343-5.762 1.958-9.847 1.958-8.56 0-14.436-5.315-14.436-15.331 0-9.849 5.316-15.78 13.261-15.78 7.666 0 12.366 5.372 12.366 13.542zM173.189 104.522v.951c0 7.386 2.013 11.527 8.56 11.527 5.428 0 8.001-4.869 8.001-11.582 0-6.827-2.573-11.303-8.113-11.303-6.099 0-8.338 3.413-8.448 10.407m21.654.951c0 10.24-4.925 15.611-12.367 15.611-4.643 0-7.553-2.014-9.287-4.364h-.337c.112 1.287.337 3.526.337 4.924v12.31h-4.924v-43.42h4.028l.67 4.085h.226c1.79-2.575 4.476-4.645 9.344-4.645 7.385 0 12.31 5.148 12.31 15.5M212.856 116.329l1.344 3.524c-1.064.672-3.19 1.232-5.485 1.232-4.699 0-8.784-2.015-8.784-9.288V85.498l4.924-1.847v6.883h8.673v3.805h-8.673v17.345c0 3.637 1.958 5.373 4.7 5.373 1.12 0 2.63-.392 3.301-.728M219.737 120.525h4.924V90.534h-4.924v29.991zm5.371-38.104c0 2.126-1.342 3.133-2.853 3.133-1.623 0-2.91-1.007-2.91-3.133 0-2.183 1.287-3.134 2.91-3.134 1.511 0 2.853.951 2.853 3.134zM276.081 100.997v19.528h-4.868v-19.303c0-4.701-1.958-7.107-6.099-7.107-5.819 0-8.113 3.469-8.113 9.848v16.562h-4.868v-19.303c0-4.701-1.959-7.107-6.156-7.107-6.042 0-8 3.861-8 10.855v15.555h-4.924V90.534h3.972l.727 4.085h.28c1.847-3.134 5.26-4.644 8.841-4.644 4.588 0 7.722 1.623 9.177 5.036h.28c2.014-3.413 5.706-5.036 9.623-5.036 6.771 0 10.128 3.3 10.128 11.022M295.325 117c6.043 0 8.785-4.42 8.785-11.526 0-7.107-2.742-11.36-8.84-11.36-6.099 0-8.729 4.253-8.729 11.36 0 7.106 2.685 11.526 8.784 11.526m-.11 4.085c-7.948 0-13.766-5.651-13.766-15.611 0-9.904 5.315-15.5 13.933-15.5 8.113 0 13.82 5.596 13.82 15.5 0 9.96-5.428 15.61-13.988 15.61M341.54 84.883h-6.548v31.334h5.428c10.8 0 16.226-5.371 16.226-15.891 0-10.631-5.483-15.443-15.107-15.443m-.447 35.643h-11.135V80.574h12.31c12.03 0 19.695 6.77 19.695 19.584 0 13.485-7.722 20.368-20.87 20.368M367.891 120.525h4.924V90.534h-4.924v29.991zm10.35-42.3c-1.398 2.07-5.371 6.377-8.001 8.392h-3.245v-.671c1.622-2.07 4.028-5.763 5.316-8.281h5.93v.56zM392.9 106.033c-7.498.28-9.904 2.406-9.904 6.211 0 3.357 2.238 4.868 5.483 4.868 5.036 0 8.841-2.742 8.841-8.56v-2.687l-4.42.168zm9.288-5.93v20.422h-3.58l-.952-4.253h-.224c-2.63 3.302-5.036 4.813-10.072 4.813-5.428 0-9.456-2.798-9.456-8.897 0-5.987 4.588-9.289 14.38-9.568l5.092-.168v-1.79c0-4.98-2.294-6.659-6.21-6.659-3.134 0-5.988 1.12-8.45 2.294l-1.51-3.693c2.63-1.399 6.322-2.574 10.24-2.574 7.272 0 10.742 3.078 10.742 10.072z"/>
        <g>
            <path d="M20.279 20.574v4.42h4.701v31.055h-3.022l-1.679 4.477h14.437v-4.477h-4.701V24.994h3.022l1.679-4.42zM56.535 40.102c0-4.365-2.07-6.547-6.154-6.547-4.085 0-6.156 2.238-6.156 6.603 0 4.14 2.071 6.211 6.211 6.211 4.085 0 6.1-2.126 6.1-6.267m3.356 24.004c0-1.623-.447-2.686-1.342-3.245-.952-.56-2.743-.84-5.428-.84h-5.148c-4.196 0-6.266 1.791-6.266 5.428 0 3.133 2.462 4.756 7.386 4.756 7.217 0 10.798-2.014 10.798-6.099m-22.884 1.511c0-3.86 2.181-6.324 6.546-7.386-1.735-.84-2.63-2.294-2.63-4.196 0-2.07 1.231-3.806 3.637-5.26-3.413-1.4-5.204-4.98-5.204-8.449 0-6.995 4.365-10.352 11.192-10.352 1.566 0 2.91.168 4.084.56h10.351l-1.455 3.804h-3.916c1.175 1.567 1.79 3.526 1.79 5.82 0 6.211-4.532 9.624-11.022 9.624-1.008 0-1.79-.056-2.35-.168-1.848 1.007-2.742 2.238-2.742 3.636 0 1.511 1.511 2.295 4.42 2.295h5.092c6.043 0 9.792 2.742 9.792 8.114 0 6.881-5.148 10.295-15.444 10.295-6.994 0-12.14-2.407-12.14-8.337M69.738 60.525V19.902L74.662 18v42.525zM86.578 42.564h15.275c-.055-5.092-2.294-8.562-7.273-8.562-4.7 0-7.498 3.19-8.002 8.562m20.424.951v2.965H86.467c.168 6.771 3.581 10.408 9.567 10.408 2.91 0 5.876-.559 8.226-1.455l1.398 3.693c-3.077 1.343-5.763 1.96-9.848 1.96-8.56 0-14.435-5.317-14.435-15.333 0-9.848 5.315-15.779 13.261-15.779 7.666 0 12.366 5.371 12.366 13.541M121.044 61.085c-4.197 0-7.106-.672-9.4-1.902l1.454-3.805c1.959.839 5.204 1.734 8.057 1.734 4.98 0 7.107-1.734 7.107-4.421 0-2.237-1.511-3.581-7.386-5.818-5.82-2.238-9.29-4.03-9.29-8.953 0-5.092 4.533-7.945 11.248-7.945 3.637 0 6.77.783 9.568 2.014l-1.51 3.973c-2.575-1.12-5.484-1.96-8.394-1.96-4.028 0-6.211 1.4-6.211 3.639 0 2.517 1.959 3.524 7.722 5.707 5.708 2.126 9.009 4.085 9.009 8.896 0 5.82-4.645 8.84-11.974 8.84M139.003 60.525h4.924V30.534h-4.924v29.991zm5.371-38.104c0 2.126-1.343 3.133-2.853 3.133-1.624 0-2.911-1.007-2.911-3.133 0-2.183 1.287-3.134 2.911-3.134 1.51 0 2.853.951 2.853 3.134zM165.13 46.033c-7.496.28-9.902 2.406-9.902 6.211 0 3.357 2.238 4.868 5.483 4.868 5.036 0 8.84-2.742 8.84-8.56v-2.687l-4.42.168zm9.29-5.93v20.422h-3.581l-.951-4.253h-.224c-2.63 3.302-5.036 4.813-10.072 4.813-5.428 0-9.456-2.798-9.456-8.897 0-5.987 4.588-9.289 14.38-9.568l5.092-.168v-1.79c0-4.98-2.294-6.659-6.211-6.659-3.133 0-5.987 1.12-8.45 2.294l-1.51-3.693c2.63-1.399 6.323-2.574 10.24-2.574 7.273 0 10.743 3.078 10.743 10.072zM210.953 31.598c-.336-.896-1.51-4.59-1.902-5.987-.56 2.294-1.287 4.7-1.736 5.987l-4.532 12.086h12.647l-4.477-12.086zm5.987 16.562h-15.835l-4.756 12.366h-5.092l15.611-40.12h4.532l15.556 40.12h-5.204L216.94 48.16zM249.614 46.537v-.896c0-7.441-2.015-11.582-8.673-11.582-5.315 0-7.945 4.533-7.945 11.638 0 7.162 2.63 11.303 8.001 11.303 6.323 0 8.617-3.469 8.617-10.463m-21.71-.951c0-10.296 4.924-15.611 12.365-15.611 4.645 0 7.443 1.958 9.288 4.419h.336c-.11-.951-.336-3.3-.336-4.419V19.902L254.482 18v42.525h-3.972l-.728-4.028h-.225c-1.79 2.573-4.643 4.588-9.343 4.588-7.443 0-12.31-5.204-12.31-15.499M258.563 30.534h5.26l6.38 17.682c.895 2.462 2.07 6.098 2.406 7.945h.224c.39-1.847 1.677-5.54 2.516-7.945l6.38-17.682h5.26l-11.415 29.991h-5.652l-11.359-29.99zM293.98 42.564h15.275c-.055-5.092-2.293-8.562-7.274-8.562-4.7 0-7.498 3.19-8 8.562m20.423.951v2.965h-20.536c.168 6.771 3.582 10.408 9.569 10.408 2.909 0 5.875-.559 8.226-1.455l1.397 3.693c-3.077 1.343-5.764 1.96-9.848 1.96-8.56 0-14.435-5.317-14.435-15.333 0-9.848 5.315-15.779 13.26-15.779 7.667 0 12.367 5.371 12.367 13.541M345.008 40.997v19.528h-4.868V41.333c0-4.812-2.126-7.218-6.714-7.218-6.66 0-8.785 3.861-8.785 10.855v15.555h-4.924V30.534h3.973l.727 4.085h.279c1.959-3.134 5.652-4.644 9.458-4.644 7.162 0 10.854 3.3 10.854 11.022M365.036 56.329l1.344 3.524c-1.064.672-3.19 1.232-5.485 1.232-4.699 0-8.784-2.015-8.784-9.288V25.498l4.924-1.847v6.883h8.673v3.805h-8.673v17.345c0 3.637 1.958 5.373 4.7 5.373 1.12 0 2.63-.392 3.301-.728M371.917 60.525h4.924V30.534h-4.924v29.991zm5.371-38.104c0 2.126-1.343 3.133-2.853 3.133-1.623 0-2.911-1.007-2.911-3.133 0-2.183 1.288-3.134 2.911-3.134 1.51 0 2.853.951 2.853 3.134zM392.786 61.085c-4.197 0-7.106-.672-9.4-1.902l1.454-3.805c1.96.839 5.204 1.734 8.057 1.734 4.981 0 7.107-1.734 7.107-4.421 0-2.237-1.51-3.581-7.386-5.818-5.819-2.238-9.289-4.03-9.289-8.953 0-5.092 4.532-7.945 11.247-7.945 3.637 0 6.771.783 9.568 2.014l-1.51 3.973c-2.575-1.12-5.484-1.96-8.394-1.96-4.028 0-6.21 1.4-6.21 3.639 0 2.517 1.958 3.524 7.721 5.707 5.708 2.126 9.01 4.085 9.01 8.896 0 5.82-4.646 8.84-11.975 8.84M423.726 56.329l1.344 3.524c-1.064.672-3.19 1.232-5.485 1.232-4.7 0-8.784-2.015-8.784-9.288V25.498l4.924-1.847v6.883h8.673v3.805h-8.673v17.345c0 3.637 1.958 5.373 4.7 5.373 1.119 0 2.63-.392 3.3-.728M442.3 46.033c-7.497.28-9.903 2.406-9.903 6.211 0 3.357 2.238 4.868 5.484 4.868 5.035 0 8.84-2.742 8.84-8.56v-2.687l-4.42.168zm9.289-5.93v20.422h-3.581l-.951-4.253h-.224c-2.63 3.302-5.036 4.813-10.071 4.813-5.428 0-9.457-2.798-9.457-8.897 0-5.987 4.589-9.289 14.38-9.568l5.093-.168v-1.79c0-4.98-2.294-6.659-6.211-6.659-3.134 0-5.988 1.12-8.45 2.294l-1.51-3.693c2.63-1.399 6.322-2.574 10.239-2.574 7.274 0 10.743 3.078 10.743 10.072zM456.343 22.14c.503 0 .839-.279.839-.728 0-.447-.28-.67-.84-.67h-.503v1.398h.504zm-1.287-2.07h1.287c1.119 0 1.622.448 1.622 1.342 0 .617-.392.953-.783 1.12l1.175 1.96h-.895l-1.008-1.736h-.615v1.735h-.783v-4.42zm4.532 2.238c0-1.734-1.287-3.189-3.134-3.189-1.845 0-3.132 1.342-3.132 3.19 0 1.733 1.287 3.133 3.132 3.133 1.736 0 3.134-1.287 3.134-3.134zm-6.826 0c0-2.182 1.51-3.749 3.692-3.749 2.07 0 3.694 1.567 3.694 3.75 0 2.127-1.567 3.693-3.694 3.693-2.181 0-3.692-1.566-3.692-3.693z"/>
        </g>
    </g>
</svg>
